# xmcd
#
# Track frame offsets: 
#        150
#        19346
#        41420
#        54685
#        82456
#        96569
#        111035
#        163023
#        182062
#        198724
#        219456
#        230738
#        253582
#        273036
#        298425
#        316968
#        339079
#
# Disc length: 4841 seconds
#
# Revision: 0
# Processed by: cddbd v1.5.2PL0 Copyright (c) Steve Scherf et al.
# Submitted via: ExactAudioCopyFreeDBPlugin 1.0
#
DISCID=0712e711
DTITLE=Gary Moore - GM by ted
DYEAR=2014
DGENRE=Blues
TTITLE0=Out in the Fields
TTITLE1=Separate Ways
TTITLE2=Walking by myself
TTITLE3=Still got the Blues (full version)
TTITLE4=I loved another Woman
TTITLE5=Johnny Boy
TTITLE6=So far away-Empty Rooms (live '10)
TTITLE7=Friday on my Mind
TTITLE8=All your Love
TTITLE9=Story of the Blues (single edit)
TTITLE10=Don't you lie to me (I get Evil)
TTITLE11=Parisienne Walkways (live '93)
TTITLE12=After the War
TTITLE13=Military Man
TTITLE14=Need your love so bad (single edit)
TTITLE15=I have found my Love in You
TTITLE16=Over the Hills and far away
EXTD=
EXTT0=
EXTT1=
EXTT2=
EXTT3=
EXTT4=
EXTT5=
EXTT6=
EXTT7=
EXTT8=
EXTT9=
EXTT10=
EXTT11=
EXTT12=
EXTT13=
EXTT14=
EXTT15=
EXTT16=
PLAYORDER=
